<?xml version="1.0" encoding="utf-8"?>
<!-- Generator: Adobe Illustrator 24.0.2, SVG Export Plug-In . SVG Version: 6.00 Build 0)  -->
<svg version="1.1" id="Capa_1" xmlns="http://www.w3.org/2000/svg" xmlns:xlink="http://www.w3.org/1999/xlink" x="0px" y="0px"
	 viewBox="0 0 620.43 394.88" style="enable-background:new 0 0 620.43 394.88;" xml:space="preserve">
<style type="text/css">
	.st0{fill:#1A3245;}
	.st1{fill:#3CB3BE;}
	.st2{fill:#83BE41;}
	.st3{fill:#E5832E;}
	.st4{fill:#B2CD29;}
	.st5{fill:#B2CC2B;}
	.st6{fill:#E18532;}
	.st7{fill:#E18433;}
	.st8{fill:#E08733;}
	.st9{fill:#F1F4F4;}
	.st10{fill:#42B2BD;}
	.st11{fill:#CBD8E2;}
</style>
<g>
	<g>
		<path class="st0" d="M427.06,146.46c-6.44,0-12.22-0.09-18,0.02c-23.29,0.44-44.26,7.42-61.97,22.81
			c-6.52,5.66-12.17,12.32-18.45,18.26c-10.5,9.93-25.35,10.15-36.24,0.66c-2.88-2.51-5.59-5.24-8.14-8.09
			c-8.87-9.9-18.91-18.23-30.93-24.1c-17.11-8.35-35.34-10.2-54.03-9.73c-6.7,0.17-6.66,0-5.8-6.71c1.71-13.21,3.47-26.42,5-39.66
			c0.58-5.04-2.57-8.8-7.03-9.16c-4.22-0.35-8.13,2.7-8.69,7.25c-2.15,17.69-4.27,35.38-6.15,53.1c-0.76,7.14,2.59,10.52,9.76,10.64
			c9.33,0.16,18.66,0.12,27.99,0.39c10.8,0.31,20.95,3.17,30.83,7.58c13.93,6.22,24.27,16.74,34.65,27.37
			c16.62,17.02,40.06,17.93,57.88,2.27c5.12-4.5,9.93-9.38,14.77-14.19c10.69-10.64,23.38-18.22,38.12-20.56
			c13.56-2.15,27.48-2.13,41.25-2.75c9.97-0.45,12.38-2.97,11.23-12.96c-1.9-16.54-3.81-33.08-5.71-49.63
			c-0.61-5.35-4-8.57-8.77-8.27c-4.8,0.3-7.63,3.91-7.07,9.46c0.75,7.29,1.74,14.56,2.61,21.83
			C425.11,130.02,426.02,137.76,427.06,146.46z"/>
		<path class="st0" d="M326.15,101.42c-2.15,1.57-3.22,2.55-4.46,3.22c-10.35,5.62-23.58,1.88-30.19-8.48
			c-6.21-9.75-3.51-22.75,6.18-29.74c9.7-7,23.13-5.4,30.64,3.65c1.7,2.05,2.96,4.93,5.13,6c2.5,1.24,6.18,1.87,8.56,0.89
			c1.5-0.62,2.07-4.7,2.1-7.23c0.02-1.78-1.41-3.68-2.46-5.36c-9.18-14.72-29.51-20.74-45.4-13.5
			c-16.64,7.59-25.74,26.31-20.89,43.01c5.17,17.82,22.49,29.97,39.69,27.48c12.24-1.77,21.86-7.87,27.8-18.97
			c3.52-6.57,1.18-11.35-6.02-12.96c-1.46-0.33-2.95-0.53-4.42-0.83c-5.7-1.19-10.65-3.03-13.31-9.14
			c-1.88-4.33-6.96-5.68-11.14-4.11c-4.34,1.62-6.72,5.56-6.05,10.34c0.94,6.7,5.94,9.75,11.5,11.94
			C317.07,99.06,320.96,99.9,326.15,101.42z"/>
		<path class="st0" d="M470.29,181.39c-1.62-11.64-2.97-22.55-4.74-33.39c-0.71-4.37-4.56-6.86-8.27-6.26
			c-4.37,0.71-6.54,3.57-6.03,8.72c0.54,5.46,1.38,10.9,2.27,16.32c0.66,4-0.14,6.24-4.89,6.35c-10.49,0.24-20.97,0.78-31.44,1.42
			c-8.95,0.55-17.99,0.82-26.81,2.29c-10.6,1.76-20.33,6.22-28.98,12.74c-3.48,2.62-3.97,6.06-1.78,9.7
			c2.12,3.51,6.34,4.64,10.06,2.27c15.24-9.71,32.16-11.85,49.74-12.12c14.64-0.22,29.28-1.28,43.91-1.96
			C467.74,187.26,470.03,184.98,470.29,181.39z"/>
		<path class="st0" d="M168.48,152.41c0.47-6.85-2.01-10.2-6.48-10.75c-4-0.49-7.58,2.65-8.31,7.54
			c-1.46,9.87-2.86,19.76-4.17,29.65c-0.72,5.41,1.68,8.29,7.13,8.55c16.13,0.78,32.27,1.67,48.41,2.13
			c15.9,0.45,31.11,3.02,44.78,11.84c3.97,2.56,8.05,1.5,10.45-2.17c2.23-3.42,1.43-7.21-2.26-10.06c-1.31-1.01-2.78-1.83-4.22-2.67
			c-13.99-8.2-29.17-11.74-45.31-12.02c-12.65-0.22-25.29-0.98-37.94-1.38c-3.65-0.11-5.09-1.43-4.4-5.23
			C167.2,162.13,167.9,156.34,168.48,152.41z"/>
		<path class="st0" d="M323.47,162.03c1.14-0.82,3.49-2.05,5.26-3.85c20.77-21.11,41.46-42.31,62.17-63.49
			c4.89-5,9.85-9.92,14.61-15.04c2.85-3.07,3.09-6.59,0.35-9.94c-2.25-2.76-5.25-3.73-8.46-2.12c-1.87,0.94-3.44,2.6-4.94,4.13
			c-23.95,24.3-47.88,48.62-71.77,72.97c-1.85,1.89-3.64,3.95-4.98,6.21C312.85,155.7,316.55,162.01,323.47,162.03z"/>
		<path class="st0" d="M307.13,154.07c-2.91-3.65-5.09-6.92-7.79-9.69c-13.91-14.3-27.98-28.44-41.93-42.71
			c-10.35-10.59-20.54-21.34-30.93-31.88c-3.62-3.67-8.06-3.76-11.07-0.73c-3.11,3.14-2.97,7.18,0.42,11.1
			c0.98,1.13,1.98,2.25,3.02,3.32c21.21,21.84,42.41,43.68,63.64,65.5c3.71,3.81,7.25,7.89,11.46,11.07
			c1.82,1.37,5.54,1.73,7.65,0.81C303.76,159.93,304.99,156.87,307.13,154.07z"/>
		<path class="st0" d="M354.44,46.27c0.73-0.31,2.67-0.55,3.63-1.65c4.69-5.38,9.44-10.77,13.52-16.6c2.16-3.09,0.62-6.62-2.37-8.77
			c-2.88-2.07-6.14-1.93-8.59,0.81c-4.42,4.96-8.9,9.93-12.79,15.29C344.58,39.85,348.09,46.1,354.44,46.27z"/>
		<path class="st0" d="M256.72,18.03c-6.43-0.03-10.01,5.83-7.01,10.35c3.65,5.5,7.9,10.65,12.3,15.59c2.77,3.11,6.58,3.37,9.8,0.5
			c3.24-2.88,3.16-6.54,0.64-9.84c-3.62-4.74-7.41-9.36-11.38-13.8C259.73,19.34,257.6,18.57,256.72,18.03z"/>
		<path class="st0" d="M303.27,15.34c0.01,0,0.03,0,0.04,0c0,2.66-0.06,5.33,0.01,7.99c0.15,5.26,2.88,8.41,7.17,8.4
			c3.94-0.02,6.87-3.15,6.98-8.2c0.12-5.65-0.24-11.31-0.4-16.97c-0.13-4.5-2.41-6.68-6.95-6.56c-4.49,0.12-6.72,2.44-6.84,6.84
			C303.21,9.67,303.27,12.51,303.27,15.34z"/>
		<path class="st1" d="M427.06,146.46c-1.03-8.7-1.95-16.43-2.87-24.16c-0.87-7.28-1.87-14.54-2.61-21.83
			c-0.57-5.55,2.27-9.16,7.07-9.46c4.77-0.3,8.16,2.93,8.77,8.27c1.89,16.54,3.81,33.08,5.71,49.63c1.15,9.99-1.26,12.5-11.23,12.96
			c-13.77,0.62-27.7,0.6-41.25,2.75c-14.74,2.34-27.43,9.92-38.12,20.56c-4.84,4.82-9.65,9.69-14.77,14.19
			c-17.82,15.67-41.25,14.75-57.88-2.27c-10.38-10.63-20.73-21.15-34.65-27.37c-9.88-4.41-20.03-7.27-30.83-7.58
			c-9.32-0.27-18.66-0.23-27.99-0.39c-7.18-0.12-10.52-3.5-9.76-10.64c1.88-17.72,4-35.41,6.15-53.1c0.55-4.55,4.46-7.59,8.69-7.25
			c4.46,0.37,7.61,4.13,7.03,9.16c-1.53,13.24-3.29,26.45-5,39.66c-0.87,6.71-0.91,6.88,5.8,6.71c18.69-0.47,36.92,1.37,54.03,9.73
			c12.02,5.87,22.06,14.2,30.93,24.1c2.55,2.85,5.26,5.58,8.14,8.09c10.89,9.49,25.74,9.26,36.24-0.66
			c6.29-5.95,11.94-12.6,18.45-18.26c17.71-15.39,38.69-22.37,61.97-22.81C414.84,146.36,420.62,146.46,427.06,146.46z"/>
		<path class="st2" d="M326.15,101.42c-5.19-1.52-9.08-2.36-12.73-3.8c-5.57-2.19-10.56-5.24-11.5-11.94
			c-0.67-4.78,1.71-8.71,6.05-10.34c4.18-1.56,9.26-0.21,11.14,4.11c2.66,6.11,7.61,7.95,13.31,9.14c1.47,0.31,2.96,0.51,4.42,0.83
			c7.21,1.61,9.54,6.39,6.02,12.96c-5.94,11.1-15.55,17.2-27.8,18.97c-17.2,2.49-34.52-9.66-39.69-27.48
			c-4.85-16.7,4.25-35.43,20.89-43.01c15.89-7.24,36.22-1.22,45.4,13.5c1.05,1.68,2.48,3.58,2.46,5.36c-0.03,2.54-0.6,6.62-2.1,7.23
			c-2.39,0.99-6.07,0.35-8.56-0.89c-2.17-1.08-3.43-3.95-5.13-6c-7.51-9.05-20.94-10.65-30.64-3.65c-9.69,6.99-12.39,20-6.18,29.74
			c6.6,10.36,19.83,14.1,30.19,8.48C322.93,103.97,324,102.99,326.15,101.42z"/>
		<path class="st3" d="M470.29,181.39c-0.27,3.59-2.56,5.87-6.95,6.07c-14.64,0.67-29.27,1.74-43.91,1.96
			c-17.57,0.26-34.5,2.41-49.74,12.12c-3.72,2.37-7.95,1.24-10.06-2.27c-2.2-3.64-1.7-7.07,1.78-9.7
			c8.65-6.52,18.38-10.98,28.98-12.74c8.82-1.47,17.85-1.74,26.81-2.29c10.47-0.64,20.96-1.18,31.44-1.42
			c4.75-0.11,5.55-2.34,4.89-6.35c-0.89-5.42-1.74-10.85-2.27-16.32c-0.51-5.15,1.66-8.01,6.03-8.72c3.71-0.6,7.56,1.89,8.27,6.26
			C467.32,158.84,468.67,169.75,470.29,181.39z"/>
		<path class="st3" d="M168.48,152.41c-0.58,3.93-1.28,9.72-2.31,15.45c-0.69,3.79,0.75,5.11,4.4,5.23
			c12.65,0.39,25.29,1.16,37.94,1.38c16.14,0.28,31.32,3.82,45.31,12.02c1.44,0.84,2.91,1.66,4.22,2.67
			c3.69,2.84,4.49,6.64,2.26,10.06c-2.4,3.67-6.48,4.73-10.45,2.17c-13.67-8.82-28.88-11.38-44.78-11.84
			c-16.14-0.46-32.28-1.35-48.41-2.13c-5.45-0.26-7.85-3.14-7.13-8.55c1.31-9.9,2.71-19.78,4.17-29.65c0.72-4.89,4.3-8.03,8.31-7.54
			C166.46,142.21,168.95,145.55,168.48,152.41z"/>
		<path class="st4" d="M323.47,162.03c-6.91-0.02-10.62-6.34-7.77-11.13c1.35-2.26,3.13-4.32,4.98-6.21
			c23.89-24.36,47.82-48.68,71.77-72.97c1.51-1.53,3.07-3.19,4.94-4.13c3.21-1.61,6.22-0.64,8.46,2.12c2.73,3.36,2.5,6.87-0.35,9.94
			c-4.75,5.12-9.72,10.04-14.61,15.04c-20.71,21.18-41.4,42.38-62.17,63.49C326.96,159.98,324.61,161.21,323.47,162.03z"/>
		<path class="st5" d="M307.13,154.07c-2.15,2.81-3.37,5.86-5.52,6.79c-2.11,0.91-5.83,0.56-7.65-0.81
			c-4.21-3.18-7.75-7.25-11.46-11.07c-21.23-21.81-42.44-43.66-63.64-65.5c-1.04-1.07-2.04-2.19-3.02-3.32
			c-3.39-3.92-3.54-7.96-0.42-11.1c3-3.03,7.45-2.94,11.07,0.73c10.39,10.55,20.58,21.3,30.93,31.88
			c13.95,14.26,28.02,28.4,41.93,42.71C302.04,147.15,304.23,150.42,307.13,154.07z"/>
		<path class="st6" d="M354.44,46.27c-6.35-0.17-9.86-6.41-6.6-10.92c3.89-5.37,8.37-10.33,12.79-15.29
			c2.45-2.75,5.71-2.88,8.59-0.81c2.99,2.15,4.53,5.68,2.37,8.77c-4.08,5.84-8.83,11.22-13.52,16.6
			C357.11,45.71,355.17,45.95,354.44,46.27z"/>
		<path class="st7" d="M256.72,18.03c0.88,0.55,3.01,1.31,4.34,2.79c3.98,4.44,7.76,9.06,11.38,13.8c2.52,3.3,2.6,6.96-0.64,9.84
			c-3.23,2.87-7.03,2.61-9.8-0.5c-4.4-4.94-8.64-10.09-12.3-15.59C246.71,23.86,250.29,18,256.72,18.03z"/>
		<path class="st8" d="M303.27,15.34c0-2.83-0.06-5.66,0.01-8.49c0.11-4.4,2.35-6.72,6.84-6.84c4.54-0.12,6.82,2.06,6.95,6.56
			c0.16,5.66,0.52,11.32,0.4,16.97c-0.11,5.04-3.05,8.18-6.98,8.2c-4.28,0.02-7.01-3.13-7.17-8.4c-0.08-2.66-0.01-5.33-0.01-7.99
			C303.29,15.34,303.28,15.34,303.27,15.34z"/>
	</g>
	<g>
		<g>
			<path class="st9" d="M50.47,283.9H17.29v22.47h38.95v13.89H0v-83.89h56.12v14H17.29v19.99h33.19V283.9z"/>
			<path class="st9" d="M98.3,303.03c0-2.04-1.01-3.64-3.02-4.81c-2.02-1.17-5.25-2.22-9.71-3.14c-14.83-3.11-22.24-9.41-22.24-18.9
				c0-5.53,2.29-10.15,6.89-13.86c4.59-3.71,10.59-5.56,18.01-5.56c7.91,0,14.24,1.86,18.98,5.59c4.74,3.73,7.12,8.57,7.12,14.52
				H97.67c0-2.38-0.77-4.35-2.3-5.91c-1.54-1.56-3.94-2.33-7.2-2.33c-2.8,0-4.98,0.63-6.51,1.9c-1.54,1.27-2.3,2.88-2.3,4.84
				c0,1.84,0.87,3.33,2.62,4.47c1.75,1.13,4.7,2.11,8.84,2.94c4.15,0.83,7.64,1.76,10.49,2.79c8.8,3.23,13.19,8.82,13.19,16.77
				c0,5.69-2.44,10.28-7.32,13.8c-4.88,3.51-11.18,5.27-18.9,5.27c-5.22,0-9.86-0.93-13.91-2.79c-4.05-1.86-7.23-4.42-9.54-7.66
				s-3.46-6.75-3.46-10.52h15.79c0.15,2.96,1.25,5.22,3.28,6.8c2.04,1.58,4.76,2.36,8.18,2.36c3.19,0,5.6-0.6,7.23-1.82
				C97.48,306.57,98.3,304.99,98.3,303.03z"/>
			<path class="st9" d="M148.63,307.99c3.07,0,5.57-0.84,7.49-2.54c1.92-1.69,2.92-3.94,3-6.74h15.61
				c-0.04,4.23-1.19,8.1-3.46,11.61c-2.27,3.52-5.37,6.24-9.31,8.18c-3.94,1.94-8.29,2.91-13.05,2.91c-8.91,0-15.94-2.83-21.09-8.5
				c-5.15-5.67-7.72-13.49-7.72-23.48v-1.09c0-9.6,2.55-17.27,7.66-22.99c5.11-5.72,12.12-8.58,21.03-8.58
				c7.8,0,14.05,2.22,18.75,6.65c4.7,4.44,7.1,10.34,7.17,17.72h-15.61c-0.08-3.24-1.08-5.88-3-7.91c-1.92-2.03-4.46-3.04-7.61-3.04
				c-3.88,0-6.81,1.41-8.79,4.24c-1.98,2.83-2.97,7.42-2.97,13.76v1.73c0,6.43,0.98,11.04,2.94,13.85S144.64,307.99,148.63,307.99z"
				/>
			<path class="st9" d="M220.16,313.92c-4.11,4.99-9.79,7.49-17.05,7.49c-6.68,0-11.78-1.92-15.3-5.76
				c-3.51-3.84-5.31-9.47-5.39-16.88v-40.85h16.65v40.32c0,6.5,2.96,9.75,8.87,9.75c5.65,0,9.53-1.96,11.64-5.88v-44.19h16.71v62.34
				h-15.67L220.16,313.92z"/>
			<path class="st9" d="M275.83,321.41c-9.14,0-16.58-2.8-22.33-8.41c-5.74-5.61-8.61-13.08-8.61-22.41v-1.61
				c0-6.26,1.21-11.86,3.63-16.8c2.42-4.93,5.85-8.74,10.28-11.41c4.44-2.67,9.5-4,15.18-4c8.53,0,15.24,2.69,20.14,8.07
				c4.9,5.38,7.35,13,7.35,22.87v6.8h-39.7c0.54,4.07,2.16,7.34,4.87,9.79c2.71,2.46,6.14,3.69,10.28,3.69
				c6.41,0,11.43-2.32,15.04-6.97l8.18,9.16c-2.5,3.53-5.88,6.29-10.14,8.27C285.74,320.42,281.01,321.41,275.83,321.41z
				 M273.92,270.19c-3.3,0-5.98,1.12-8.04,3.36c-2.06,2.24-3.37,5.44-3.95,9.61h23.16v-1.33c-0.08-3.7-1.08-6.57-3-8.59
				C280.18,271.2,277.46,270.19,273.92,270.19z"/>
			<path class="st9" d="M327.06,320.26h-16.71v-88.5h16.71V320.26z"/>
			<path class="st9" d="M374.8,320.26c-0.77-1.5-1.33-3.36-1.67-5.59c-4.03,4.49-9.28,6.74-15.73,6.74c-6.11,0-11.17-1.77-15.18-5.3
				c-4.01-3.53-6.02-7.99-6.02-13.37c0-6.61,2.45-11.68,7.35-15.21c4.9-3.53,11.97-5.32,21.23-5.36h7.66v-3.57
				c0-2.88-0.74-5.19-2.22-6.91c-1.48-1.73-3.81-2.59-7-2.59c-2.8,0-5,0.67-6.6,2.02c-1.59,1.34-2.39,3.19-2.39,5.53h-16.65
				c0-3.61,1.11-6.95,3.34-10.03c2.23-3.07,5.38-5.48,9.45-7.23c4.07-1.75,8.64-2.62,13.71-2.62c7.68,0,13.78,1.93,18.29,5.79
				c4.51,3.86,6.77,9.29,6.77,16.28v27.02c0.04,5.92,0.86,10.39,2.48,13.42v0.98H374.8z M361.03,308.68c2.46,0,4.72-0.55,6.8-1.64
				c2.07-1.1,3.61-2.56,4.61-4.41v-10.72h-6.22c-8.33,0-12.77,2.88-13.31,8.64l-0.06,0.98c0,2.07,0.73,3.78,2.19,5.13
				C356.5,308.01,358.49,308.68,361.03,308.68z"/>
		</g>
		<g>
			<path class="st10" d="M440.21,305.57l23.97-69.2h12.1l-31.11,83.89h-9.79l-31.06-83.89h12.04L440.21,305.57z"/>
			<path class="st10" d="M485.9,241.38c0-1.73,0.53-3.19,1.58-4.38c1.06-1.19,2.62-1.79,4.7-1.79s3.65,0.6,4.72,1.79
				c1.07,1.19,1.61,2.65,1.61,4.38s-0.54,3.17-1.61,4.32c-1.08,1.15-2.65,1.73-4.72,1.73s-3.64-0.58-4.7-1.73
				S485.9,243.11,485.9,241.38z M497.42,320.26h-10.66v-62.34h10.66V320.26z"/>
			<path class="st10" d="M535.05,305.8l15.44-47.88h10.89l-22.36,62.34h-8.12l-22.59-62.34h10.89L535.05,305.8z"/>
			<path class="st10" d="M609.26,320.26c-0.62-1.23-1.12-3.42-1.5-6.57c-4.96,5.15-10.87,7.72-17.75,7.72
				c-6.15,0-11.19-1.74-15.13-5.21c-3.94-3.48-5.91-7.88-5.91-13.22c0-6.49,2.47-11.53,7.4-15.13c4.94-3.59,11.88-5.39,20.83-5.39
				h10.37v-4.9c0-3.73-1.12-6.69-3.34-8.9c-2.23-2.21-5.51-3.31-9.85-3.31c-3.8,0-6.99,0.96-9.56,2.88
				c-2.57,1.92-3.86,4.25-3.86,6.97h-10.72c0-3.11,1.1-6.12,3.31-9.02c2.21-2.9,5.21-5.19,8.99-6.88c3.78-1.69,7.94-2.54,12.47-2.54
				c7.18,0,12.81,1.8,16.88,5.39c4.07,3.59,6.18,8.54,6.34,14.84v28.69c0,5.72,0.73,10.28,2.19,13.66v0.92H609.26z M591.57,312.13
				c3.34,0,6.51-0.86,9.51-2.59s5.17-3.98,6.51-6.74v-12.79h-8.35c-13.06,0-19.59,3.82-19.59,11.47c0,3.34,1.11,5.95,3.34,7.84
				C585.21,311.19,588.07,312.13,591.57,312.13z"/>
		</g>
	</g>
	<g>
		<path class="st11" d="M98.8,359.29h15.29v5.22h-10v5.07h10v5.12h-10v7.37h10v5.24H98.8V359.29z"/>
		<path class="st11" d="M133.78,358.59h5.2v28.72h-5.2v-2.19c-1.01,0.96-2.03,1.66-3.05,2.08c-1.02,0.42-2.13,0.64-3.32,0.64
			c-2.68,0-4.99-1.04-6.94-3.11c-1.95-2.08-2.93-4.66-2.93-7.74c0-3.2,0.94-5.82,2.83-7.86c1.89-2.04,4.18-3.07,6.89-3.07
			c1.24,0,2.41,0.24,3.5,0.71c1.09,0.47,2.1,1.17,3.02,2.11V358.59z M128.31,370.85c-1.61,0-2.94,0.57-4,1.7
			c-1.06,1.14-1.59,2.59-1.59,4.37c0,1.79,0.54,3.26,1.62,4.42c1.08,1.16,2.41,1.73,4,1.73c1.63,0,2.99-0.57,4.06-1.7
			c1.08-1.14,1.61-2.63,1.61-4.47c0-1.8-0.54-3.26-1.61-4.38S129.96,370.85,128.31,370.85z"/>
		<path class="st11" d="M144.21,366.59h5.26v9.98c0,1.94,0.13,3.29,0.4,4.05c0.27,0.75,0.7,1.34,1.29,1.76
			c0.59,0.42,1.32,0.63,2.19,0.63c0.87,0,1.6-0.21,2.2-0.62c0.6-0.41,1.05-1.02,1.35-1.82c0.22-0.6,0.32-1.87,0.32-3.83v-10.15h5.2
			v8.78c0,3.62-0.29,6.09-0.86,7.43c-0.7,1.63-1.73,2.87-3.08,3.74c-1.36,0.87-3.08,1.3-5.18,1.3c-2.27,0-4.11-0.51-5.51-1.52
			c-1.4-1.02-2.39-2.43-2.96-4.25c-0.41-1.26-0.61-3.54-0.61-6.86V366.59z"/>
		<path class="st11" d="M187.92,370.78l-4.33,2.38c-0.81-0.85-1.62-1.44-2.41-1.77s-1.73-0.5-2.79-0.5c-1.94,0-3.52,0.58-4.72,1.74
			c-1.2,1.16-1.8,2.65-1.8,4.46c0,1.76,0.58,3.2,1.73,4.32s2.68,1.67,4.56,1.67c2.33,0,4.14-0.79,5.43-2.38l4.1,2.81
			c-2.22,2.89-5.36,4.33-9.41,4.33c-3.64,0-6.5-1.08-8.56-3.24s-3.09-4.68-3.09-7.58c0-2.01,0.5-3.85,1.5-5.54s2.4-3.02,4.2-3.98
			c1.8-0.96,3.81-1.45,6.03-1.45c2.06,0,3.9,0.41,5.54,1.23C185.54,368.1,186.88,369.27,187.92,370.78z"/>
		<path class="st11" d="M207.89,366.59h5.2v20.72h-5.2v-2.19c-1.01,0.96-2.03,1.66-3.05,2.08c-1.02,0.42-2.13,0.64-3.32,0.64
			c-2.68,0-4.99-1.04-6.94-3.11c-1.95-2.08-2.93-4.66-2.93-7.74c0-3.2,0.94-5.82,2.83-7.86c1.89-2.04,4.18-3.07,6.89-3.07
			c1.24,0,2.41,0.24,3.5,0.71c1.09,0.47,2.1,1.17,3.02,2.11V366.59z M202.43,370.85c-1.61,0-2.94,0.57-4,1.7
			c-1.06,1.14-1.59,2.59-1.59,4.37c0,1.79,0.54,3.26,1.62,4.42c1.08,1.16,2.41,1.73,4,1.73c1.63,0,2.99-0.57,4.06-1.7
			c1.08-1.14,1.61-2.63,1.61-4.47c0-1.8-0.54-3.26-1.61-4.38S204.07,370.85,202.43,370.85z"/>
		<path class="st11" d="M238.63,370.78l-4.33,2.38c-0.81-0.85-1.62-1.44-2.41-1.77s-1.73-0.5-2.79-0.5c-1.94,0-3.52,0.58-4.72,1.74
			c-1.2,1.16-1.8,2.65-1.8,4.46c0,1.76,0.58,3.2,1.73,4.32s2.68,1.67,4.56,1.67c2.33,0,4.14-0.79,5.43-2.38l4.1,2.81
			c-2.22,2.89-5.36,4.33-9.41,4.33c-3.64,0-6.5-1.08-8.56-3.24s-3.09-4.68-3.09-7.58c0-2.01,0.5-3.85,1.5-5.54s2.4-3.02,4.2-3.98
			c1.8-0.96,3.81-1.45,6.03-1.45c2.06,0,3.9,0.41,5.54,1.23C236.25,368.1,237.59,369.27,238.63,370.78z"/>
		<path class="st11" d="M245.34,358.06c0.91,0,1.69,0.33,2.34,0.99s0.98,1.46,0.98,2.4c0,0.93-0.32,1.72-0.97,2.37
			c-0.65,0.65-1.42,0.98-2.32,0.98c-0.92,0-1.71-0.33-2.36-1c-0.65-0.67-0.98-1.48-0.98-2.43c0-0.91,0.32-1.69,0.97-2.34
			C243.65,358.38,244.43,358.06,245.34,358.06z M242.74,366.59h5.2v20.72h-5.2V366.59z"/>
		<path class="st11" d="M262.39,366.05c1.96,0,3.79,0.49,5.51,1.47c1.72,0.98,3.06,2.3,4.03,3.98s1.45,3.49,1.45,5.43
			c0,1.96-0.49,3.78-1.46,5.48c-0.97,1.7-2.29,3.03-3.97,3.99c-1.68,0.96-3.52,1.44-5.54,1.44c-2.97,0-5.51-1.06-7.61-3.17
			c-2.1-2.11-3.15-4.68-3.15-7.7c0-3.24,1.19-5.94,3.56-8.09C257.3,366.99,259.69,366.05,262.39,366.05z M262.48,370.95
			c-1.61,0-2.96,0.56-4.03,1.68c-1.07,1.12-1.61,2.56-1.61,4.31c0,1.8,0.53,3.26,1.59,4.38c1.06,1.12,2.41,1.68,4.03,1.68
			c1.63,0,2.98-0.56,4.06-1.69c1.08-1.13,1.62-2.58,1.62-4.36s-0.53-3.22-1.59-4.33C265.49,371.5,264.13,370.95,262.48,370.95z
			 M263.37,355.33h6.15l-6.97,7.46h-3.73L263.37,355.33z"/>
		<path class="st11" d="M277.63,366.59h5.2v2.12c1.18-0.99,2.25-1.68,3.2-2.07c0.96-0.39,1.94-0.58,2.94-0.58
			c2.05,0,3.8,0.72,5.23,2.15c1.2,1.22,1.81,3.02,1.81,5.41v13.69h-5.14v-9.07c0-2.47-0.11-4.11-0.33-4.93s-0.61-1.43-1.16-1.85
			c-0.55-0.42-1.23-0.64-2.04-0.64c-1.05,0-1.95,0.35-2.71,1.06c-0.75,0.7-1.28,1.68-1.57,2.92c-0.15,0.65-0.23,2.05-0.23,4.2v8.31
			h-5.2V366.59z"/>
		<path class="st11" d="M327.24,366.59h5.2v28.3h-5.2v-9.77c-1.01,0.96-2.03,1.66-3.05,2.08c-1.02,0.42-2.13,0.64-3.32,0.64
			c-2.67,0-4.99-1.04-6.94-3.11c-1.95-2.08-2.93-4.66-2.93-7.74c0-3.2,0.94-5.82,2.83-7.86s4.18-3.07,6.89-3.07
			c1.24,0,2.41,0.24,3.5,0.71s2.1,1.17,3.02,2.11V366.59z M321.77,370.85c-1.61,0-2.94,0.57-4,1.7c-1.06,1.14-1.59,2.59-1.59,4.37
			c0,1.79,0.54,3.26,1.62,4.42c1.08,1.16,2.41,1.73,4,1.73c1.63,0,2.99-0.57,4.06-1.7c1.08-1.14,1.61-2.63,1.61-4.47
			c0-1.8-0.54-3.26-1.61-4.38S323.42,370.85,321.77,370.85z"/>
		<path class="st11" d="M337.67,366.59h5.26v9.98c0,1.94,0.13,3.29,0.4,4.05c0.27,0.75,0.7,1.34,1.29,1.76
			c0.59,0.42,1.32,0.63,2.19,0.63c0.87,0,1.6-0.21,2.2-0.62c0.6-0.41,1.05-1.02,1.35-1.82c0.22-0.6,0.33-1.87,0.33-3.83v-10.15h5.2
			v8.78c0,3.62-0.29,6.09-0.86,7.43c-0.7,1.63-1.73,2.87-3.08,3.74c-1.36,0.87-3.08,1.3-5.18,1.3c-2.27,0-4.11-0.51-5.51-1.52
			c-1.4-1.02-2.39-2.43-2.96-4.25c-0.41-1.26-0.61-3.54-0.61-6.86V366.59z"/>
		<path class="st11" d="M381.85,378.45h-16.7c0.24,1.47,0.88,2.64,1.93,3.51c1.05,0.87,2.38,1.3,4.01,1.3
			c1.94,0,3.61-0.68,5.01-2.04l4.38,2.06c-1.09,1.55-2.4,2.69-3.92,3.44c-1.52,0.74-3.33,1.11-5.43,1.11c-3.25,0-5.9-1.03-7.94-3.08
			c-2.04-2.05-3.07-4.62-3.07-7.7c0-3.16,1.02-5.79,3.06-7.87c2.04-2.09,4.59-3.13,7.67-3.13c3.26,0,5.92,1.04,7.96,3.13
			c2.04,2.09,3.07,4.85,3.07,8.27L381.85,378.45z M376.65,374.36c-0.34-1.16-1.02-2.09-2.03-2.82c-1.01-0.72-2.18-1.09-3.52-1.09
			c-1.45,0-2.72,0.41-3.81,1.22c-0.69,0.51-1.32,1.4-1.91,2.69H376.65z"/>
		<path class="st11" d="M399,358.06c0.91,0,1.69,0.33,2.34,0.99c0.65,0.66,0.98,1.46,0.98,2.4c0,0.93-0.32,1.72-0.97,2.37
			c-0.65,0.65-1.42,0.98-2.32,0.98c-0.92,0-1.71-0.33-2.36-1c-0.65-0.67-0.98-1.48-0.98-2.43c0-0.91,0.32-1.69,0.97-2.34
			C397.31,358.38,398.09,358.06,399,358.06z M396.4,366.59h5.2v20.72h-5.2V366.59z"/>
		<path class="st11" d="M406.32,366.59h5.2v2.12c1.18-0.99,2.25-1.68,3.2-2.07s1.94-0.58,2.94-0.58c2.05,0,3.8,0.72,5.23,2.15
			c1.21,1.22,1.81,3.02,1.81,5.41v13.69h-5.14v-9.07c0-2.47-0.11-4.11-0.33-4.93s-0.61-1.43-1.16-1.85s-1.23-0.64-2.04-0.64
			c-1.05,0-1.95,0.35-2.71,1.06c-0.75,0.7-1.28,1.68-1.57,2.92c-0.15,0.65-0.23,2.05-0.23,4.2v8.31h-5.2V366.59z"/>
		<path class="st11" d="M442.41,369.48l-3.22,3.22c-1.31-1.29-2.5-1.94-3.56-1.94c-0.58,0-1.04,0.12-1.37,0.37
			c-0.33,0.25-0.5,0.56-0.5,0.92c0,0.28,0.1,0.54,0.31,0.77c0.21,0.24,0.73,0.56,1.55,0.96l1.9,0.95c2.01,0.99,3.38,2,4.13,3.03
			c0.75,1.03,1.12,2.24,1.12,3.62c0,1.84-0.68,3.38-2.03,4.61c-1.35,1.23-3.16,1.85-5.44,1.85c-3.02,0-5.43-1.18-7.24-3.54l3.2-3.49
			c0.61,0.71,1.32,1.29,2.14,1.72c0.82,0.44,1.55,0.66,2.18,0.66c0.69,0,1.24-0.17,1.66-0.5s0.63-0.71,0.63-1.14
			c0-0.8-0.76-1.58-2.27-2.34l-1.75-0.88c-3.35-1.69-5.03-3.8-5.03-6.34c0-1.64,0.63-3.04,1.89-4.2c1.26-1.16,2.88-1.74,4.85-1.74
			c1.35,0,2.61,0.29,3.8,0.89C440.58,367.53,441.58,368.38,442.41,369.48z"/>
		<path class="st11" d="M452.04,366.59v2.29c0.94-0.94,1.96-1.64,3.05-2.11s2.26-0.71,3.5-0.71c2.7,0,5,1.02,6.89,3.07
			s2.84,4.67,2.84,7.86c0,3.08-0.98,5.67-2.93,7.74c-1.96,2.08-4.27,3.11-6.95,3.11c-1.19,0-2.3-0.21-3.33-0.64
			c-1.03-0.43-2.05-1.12-3.07-2.08v9.77h-5.16v-28.3H452.04z M457.51,370.85c-1.64,0-3,0.56-4.08,1.68s-1.62,2.58-1.62,4.38
			c0,1.84,0.54,3.33,1.62,4.47c1.08,1.14,2.44,1.7,4.08,1.7c1.59,0,2.92-0.58,4.01-1.73c1.08-1.15,1.63-2.63,1.63-4.42
			c0-1.78-0.53-3.23-1.6-4.37C460.48,371.42,459.13,370.85,457.51,370.85z"/>
		<path class="st11" d="M474.66,358.06c0.91,0,1.69,0.33,2.34,0.99c0.65,0.66,0.98,1.46,0.98,2.4c0,0.93-0.32,1.72-0.97,2.37
			c-0.65,0.65-1.42,0.98-2.32,0.98c-0.92,0-1.71-0.33-2.37-1c-0.65-0.67-0.98-1.48-0.98-2.43c0-0.91,0.32-1.69,0.97-2.34
			C472.97,358.38,473.75,358.06,474.66,358.06z M472.06,366.59h5.2v20.72h-5.2V366.59z"/>
		<path class="st11" d="M480.76,366.59h4.46v2.61c0.48-1.03,1.12-1.81,1.92-2.34s1.68-0.8,2.63-0.8c0.67,0,1.38,0.18,2.11,0.53
			l-1.62,4.47c-0.61-0.3-1.11-0.46-1.5-0.46c-0.8,0-1.48,0.5-2.03,1.49c-0.55,0.99-0.83,2.93-0.83,5.83l0.02,1.01v8.38h-5.16V366.59
			z"/>
		<path class="st11" d="M509.74,366.59h5.2v20.72h-5.2v-2.19c-1.01,0.96-2.03,1.66-3.05,2.08c-1.02,0.42-2.13,0.64-3.32,0.64
			c-2.67,0-4.99-1.04-6.94-3.11c-1.95-2.08-2.93-4.66-2.93-7.74c0-3.2,0.94-5.82,2.83-7.86s4.18-3.07,6.89-3.07
			c1.24,0,2.41,0.24,3.5,0.71s2.1,1.17,3.02,2.11V366.59z M504.28,370.85c-1.61,0-2.94,0.57-4,1.7c-1.06,1.14-1.59,2.59-1.59,4.37
			c0,1.79,0.54,3.26,1.62,4.42c1.08,1.16,2.41,1.73,4,1.73c1.63,0,2.99-0.57,4.06-1.7c1.08-1.14,1.61-2.63,1.61-4.47
			c0-1.8-0.54-3.26-1.61-4.38S505.92,370.85,504.28,370.85z"/>
	</g>
</g>
</svg>
